<svg width="91" height="94" viewBox="0 0 91 94" fill="none" xmlns="http://www.w3.org/2000/svg">
<path d="M38.8571 66.9102C37.5322 66.167 33.437 63.9376 33.437 63.9376L29.1008 61.3366L25.8487 57.2493L24.042 53.1621L22.5966 49.8179L21.874 44.2444L20.4286 42.3865L17.8992 39.0424V34.5835H20.4286H24.4034V31.611L23.6807 30.1247V27.1521V21.9501L25.8487 17.8628L28.0168 13.7756L34.8824 4.85785L31.9916 3L27.2941 4.85785L23.6807 6.71571L19.7059 9.3167L14.6471 13.0324L10.6723 17.8628L6.33613 23.0648L4.16807 28.2668C3.44538 30.6201 2 35.4753 2 36.0698C2 36.6643 2 40.5287 2 42.3865V53.5336V58.7356L3.08403 62.4513L4.89076 65.7955L6.33613 69.1396L9.58824 73.97L12.479 77.3142L14.6471 79.9152L16.0924 81.0299L18.2605 82.8877L21.874 85.4887C27.1208 88.7058 30.1696 90.0081 35.605 91.4338C52.9611 93.2925 61.5288 90.8553 74.6303 79.9152L82.2185 69.8827L84.0252 62.4513M38.8571 66.9102C40.1821 67.6533 44.2773 69.1396 44.2773 69.1396M38.8571 66.9102L42.4706 63.9376C42.4706 63.9376 44.4908 62.0712 44.2773 60.5935M44.2773 69.1396C44.2773 69.1396 47.6499 69.635 48.6134 69.8827C50.4202 70.1305 54.1782 70.6259 54.7563 70.6259C55.479 70.6259 67.7647 71.369 69.2101 70.6259C70.6555 69.8827 77.521 68.3965 77.8824 67.6533C78.1714 67.0588 82.098 63.9376 84.0252 62.4513M44.2773 69.1396L46.084 66.9102L52.5882 64.6808L55.479 61.3366L58.0084 59.4788L61.2605 55.3915L62.3445 53.1621L63.0672 49.8179V46.8454V45.3591M84.0252 62.4513C85.9524 60.965 86.916 56.5062 86.916 56.5062L88 51.6758L85.8319 46.8454L81.1345 42.3865L76.7983 41.2718L72.4622 39.0424L68.4874 37.1845L64.1513 34.5835L61.2605 30.1247L56.563 26.409L53.3109 23.0648L50.4202 19.7207L46.084 17.8628L42.4706 15.2618L38.8571 16.005L37.7731 18.9775V23.0648V25.2942L35.605 27.1521L31.9916 30.1247L28.0168 31.611L26.5714 34.5835L25.8487 39.0424M31.9916 32.3541L30.9076 37.1845L31.9916 39.0424M35.605 30.1247V34.5835V37.1845M24.4034 50.9326H31.9916H33.437M44.2773 60.5935C44.1278 59.5584 42.8319 58.364 42.8319 58.364C42.8319 58.364 41.31 56.7287 41.0252 55.3915M44.2773 60.5935L46.084 58.7356H48.6134L50.4202 58.364L52.5882 55.3915L53.3109 54.2768L54.0336 53.5336M41.0252 55.3915C40.8441 54.541 41.0252 53.1621 41.0252 53.1621M41.0252 55.3915H38.8571" stroke="#FDB813" stroke-width="4"/>
</svg>
